<svg xmlns="http://www.w3.org/2000/svg" xmlns:xlink="http://www.w3.org/1999/xlink" contentStyleType="text/css" data-diagram-type="ACTIVITY" height="1352px" preserveAspectRatio="none" style="width:2802px;height:1352px;background:#FFFFFF;" version="1.1" viewBox="0 0 2802 1352" width="2802px" zoomAndPan="magnify"><?plantuml 1.2026.6?><defs/><g><rect fill="none" height="13.9688" style="stroke:none;stroke-width:1;" width="2755.5889" x="20" y="16.3301"/><ellipse cx="431.9111" cy="45.2988" fill="#222222" rx="10" ry="10" style="stroke:#222222;stroke-width:1;"/><rect fill="#F1F1F1" height="33.9688" rx="12.5" ry="12.5" style="stroke:#181818;stroke-width:0.5;" width="180.1777" x="341.8223" y="75.2988"/><text fill="#000000" font-family="'Segoe UI'" font-size="12" lengthAdjust="spacing" textLength="160.1777" x="351.8223" y="96.4375">Buka menu "Ajukan Surat"</text><rect fill="#F1F1F1" height="33.9688" rx="12.5" ry="12.5" style="stroke:#181818;stroke-width:0.5;" width="188.3809" x="337.7207" y="129.2676"/><text fill="#000000" font-family="'Segoe UI'" font-size="12" lengthAdjust="spacing" textLength="168.3809" x="347.7207" y="150.4063">Pilih jenis surat &amp; keperluan</text><rect fill="#F1F1F1" height="47.9375" rx="12.5" ry="12.5" style="stroke:#181818;stroke-width:0.5;" width="179.2813" x="342.2705" y="183.2363"/><text fill="#000000" font-family="'Segoe UI'" font-size="12" lengthAdjust="spacing" textLength="159.2813" x="352.2705" y="204.375">Pilih metode tanda tangan</text><text fill="#000000" font-family="'Segoe UI'" font-size="12" lengthAdjust="spacing" textLength="118.3477" x="352.2705" y="218.3438">(Digital QR / Basah)</text><rect fill="#F1F1F1" height="33.9688" rx="12.5" ry="12.5" style="stroke:#181818;stroke-width:0.5;" width="261.3652" x="301.2285" y="251.1738"/><text fill="#000000" font-family="'Segoe UI'" font-size="12" lengthAdjust="spacing" textLength="241.3652" x="311.2285" y="272.3125">Unggah dokumen pendukung (opsional)</text><rect fill="#F1F1F1" height="33.9688" rx="12.5" ry="12.5" style="stroke:#181818;stroke-width:0.5;" width="215.3867" x="324.2178" y="305.1426"/><text fill="#000000" font-family="'Segoe UI'" font-size="12" lengthAdjust="spacing" textLength="195.3867" x="334.2178" y="326.2813">Tekan tombol "Kirim Pengajuan"</text><rect fill="#F1F1F1" height="33.9688" rx="12.5" ry="12.5" style="stroke:#181818;stroke-width:0.5;" width="120.2715" x="49.9238" y="1147.7051"/><text fill="#000000" font-family="'Segoe UI'" font-size="12" lengthAdjust="spacing" textLength="100.2715" x="59.9238" y="1168.8438">Terima notifikasi</text><rect fill="#F1F1F1" height="33.9688" rx="12.5" ry="12.5" style="stroke:#181818;stroke-width:0.5;" width="168.1191" x="26" y="1201.6738"/><text fill="#000000" font-family="'Segoe UI'" font-size="12" lengthAdjust="spacing" textLength="148.1191" x="36" y="1222.8125">Unduh berkas PDF resmi</text><rect fill="#F1F1F1" height="33.9688" rx="12.5" ry="12.5" style="stroke:#181818;stroke-width:0.5;" width="206.4277" x="204.1191" y="1147.7051"/><text fill="#000000" font-family="'Segoe UI'" font-size="12" lengthAdjust="spacing" textLength="186.4277" x="214.1191" y="1168.8438">Terima notifikasi jadwal pickup</text><rect fill="#F1F1F1" height="33.9688" rx="12.5" ry="12.5" style="stroke:#181818;stroke-width:0.5;" width="194.0059" x="210.3301" y="1201.6738"/><text fill="#000000" font-family="'Segoe UI'" font-size="12" lengthAdjust="spacing" textLength="174.0059" x="220.3301" y="1222.8125">Ambil fisik surat di rumah RT</text><rect fill="#F1F1F1" height="33.9688" rx="12.5" ry="12.5" style="stroke:#181818;stroke-width:0.5;" width="156.4238" x="504.2529" y="897.8301"/><text fill="#000000" font-family="'Segoe UI'" font-size="12" lengthAdjust="spacing" textLength="136.4238" x="514.2529" y="918.9688">Terima notifikasi revisi</text><rect fill="#F1F1F1" height="33.9688" rx="12.5" ry="12.5" style="stroke:#181818;stroke-width:0.5;" width="229.5547" x="467.6875" y="966.7988"/><text fill="#000000" font-family="'Segoe UI'" font-size="12" lengthAdjust="spacing" textLength="209.5547" x="477.6875" y="987.9375">Perbaiki isian pada form perbaikan</text><rect fill="#F1F1F1" height="33.9688" rx="12.5" ry="12.5" style="stroke:#181818;stroke-width:0.5;" width="155.7793" x="504.5752" y="1035.7676"/><text fill="#000000" font-family="'Segoe UI'" font-size="12" lengthAdjust="spacing" textLength="135.7793" x="514.5752" y="1056.9063">Kirim ulang pengajuan</text><rect fill="#F1F1F1" height="33.9688" rx="12.5" ry="12.5" style="stroke:#181818;stroke-width:0.5;" width="186.6289" x="707.2422" y="1084.752"/><text fill="#000000" font-family="'Segoe UI'" font-size="12" lengthAdjust="spacing" textLength="166.6289" x="717.2422" y="1105.8906">Terima notifikasi penolakan</text><ellipse cx="431.9111" cy="1320.6426" fill="none" rx="11" ry="11" style="stroke:#222222;stroke-width:1;"/><ellipse cx="431.9111" cy="1320.6426" fill="#222222" rx="6" ry="6" style="stroke:#222222;stroke-width:1;"/><line style="stroke:#000000;stroke-width:1.5;" x1="20" x2="20" y1="16.3301" y2="1331.6426"/><rect fill="#F1F1F1" height="33.9688" rx="12.5" ry="12.5" style="stroke:#181818;stroke-width:0.5;" width="179.4453" x="1290.7686" y="359.1113"/><text fill="#000000" font-family="'Segoe UI'" font-size="12" lengthAdjust="spacing" textLength="159.4453" x="1300.7686" y="380.25">Validasi kelengkapan isian</text><polygon fill="#F1F1F1" points="1312.335,413.0801,1448.6475,413.0801,1460.6475,425.0801,1448.6475,437.0801,1312.335,437.0801,1300.335,425.0801,1312.335,413.0801" style="stroke:#181818;stroke-width:0.5;stroke-linejoin:miter;stroke-miterlimit:10;"/><text fill="#000000" font-family="'Segoe UI'" font-size="12" lengthAdjust="spacing" textLength="136.3125" x="1312.335" y="429.2344">Isian Lengkap &amp; Valid?</text><text fill="#000000" font-family="'Segoe UI'" font-size="12" lengthAdjust="spacing" textLength="14.6836" x="1285.6514" y="422.25">Ya</text><text fill="#000000" font-family="'Segoe UI'" font-size="12" lengthAdjust="spacing" textLength="32.584" x="1460.6475" y="422.25">Tidak</text><rect fill="#F1F1F1" height="33.9688" rx="12.5" ry="12.5" style="stroke:#181818;stroke-width:0.5;" width="255.5938" x="1117.5342" y="447.0801"/><text fill="#000000" font-family="'Segoe UI'" font-size="12" lengthAdjust="spacing" textLength="235.5938" x="1127.5342" y="468.2188">Simpan pengajuan (Status: "Diajukan")</text><rect fill="#F1F1F1" height="33.9688" rx="12.5" ry="12.5" style="stroke:#181818;stroke-width:0.5;" width="248.8145" x="1120.9238" y="501.0488"/><text fill="#000000" font-family="'Segoe UI'" font-size="12" lengthAdjust="spacing" textLength="228.8145" x="1130.9238" y="522.1875">Formulasi draf surat via Generative AI</text><rect fill="#F1F1F1" height="33.9688" rx="12.5" ry="12.5" style="stroke:#181818;stroke-width:0.5;" width="284.3809" x="1103.1406" y="555.0176"/><text fill="#000000" font-family="'Segoe UI'" font-size="12" lengthAdjust="spacing" textLength="264.3809" x="1113.1406" y="576.1563">Kirim notifikasi pengajuan baru ke Ketua RT</text><rect fill="#F1F1F1" height="33.9688" rx="12.5" ry="12.5" style="stroke:#181818;stroke-width:0.5;" width="216.2598" x="1407.5215" y="447.0801"/><text fill="#000000" font-family="'Segoe UI'" font-size="12" lengthAdjust="spacing" textLength="196.2598" x="1417.5215" y="468.2188">Tampilkan pesan perbaikan field</text><ellipse cx="1515.6514" cy="512.0488" fill="none" rx="11" ry="11" style="stroke:#222222;stroke-width:1;"/><ellipse cx="1515.6514" cy="512.0488" fill="#222222" rx="6" ry="6" style="stroke:#222222;stroke-width:1;"/><rect fill="#F1F1F1" height="33.9688" rx="12.5" ry="12.5" style="stroke:#181818;stroke-width:0.5;" width="197.2344" x="1031.6968" y="774.8926"/><text fill="#000000" font-family="'Segoe UI'" font-size="12" lengthAdjust="spacing" textLength="177.2344" x="1041.6968" y="796.0313">Tetapkan Nomor Surat Resmi</text><polygon fill="#F1F1F1" points="1059.8608,842.8301,1200.7671,842.8301,1212.7671,854.8301,1200.7671,866.8301,1059.8608,866.8301,1047.8608,854.8301,1059.8608,842.8301" style="stroke:#181818;stroke-width:0.5;stroke-linejoin:miter;stroke-miterlimit:10;"/><text fill="#000000" font-family="'Segoe UI'" font-size="12" lengthAdjust="spacing" textLength="140.9063" x="1059.8608" y="858.9844">Metode Tanda Tangan?</text><text fill="#000000" font-family="'Segoe UI'" font-size="12" lengthAdjust="spacing" textLength="60.5156" x="987.3452" y="852">Digital QR</text><text fill="#000000" font-family="'Segoe UI'" font-size="12" lengthAdjust="spacing" textLength="36.7969" x="1212.7671" y="852">Basah</text><rect fill="#F1F1F1" height="33.9688" rx="12.5" ry="12.5" style="stroke:#181818;stroke-width:0.5;" width="195.9102" x="906.7598" y="955.7988"/><text fill="#000000" font-family="'Segoe UI'" font-size="12" lengthAdjust="spacing" textLength="175.9102" x="916.7598" y="976.9375">Sematkan QR Code Verifikasi</text><rect fill="#F1F1F1" height="33.9688" rx="12.5" ry="12.5" style="stroke:#181818;stroke-width:0.5;" width="177.207" x="916.1113" y="1024.7676"/><text fill="#000000" font-family="'Segoe UI'" font-size="12" lengthAdjust="spacing" textLength="157.207" x="926.1113" y="1045.9063">Generate berkas PDF final</text><rect fill="#F1F1F1" height="33.9688" rx="12.5" ry="12.5" style="stroke:#181818;stroke-width:0.5;" width="201.6875" x="903.8711" y="1093.7363"/><text fill="#000000" font-family="'Segoe UI'" font-size="12" lengthAdjust="spacing" textLength="181.6875" x="913.8711" y="1114.875">Ubah status menjadi "Selesai"</text><rect fill="#F1F1F1" height="33.9688" rx="12.5" ry="12.5" style="stroke:#181818;stroke-width:0.5;" width="234.6699" x="1138.5781" y="1093.7363"/><text fill="#000000" font-family="'Segoe UI'" font-size="12" lengthAdjust="spacing" textLength="214.6699" x="1148.5781" y="1114.875">Ubah status menjadi "Siap Diambil"</text><polygon fill="#F1F1F1" points="1130.314,1245.6426,1142.314,1257.6426,1130.314,1269.6426,1118.314,1257.6426,1130.314,1245.6426" style="stroke:#181818;stroke-width:0.5;stroke-linejoin:miter;stroke-miterlimit:10;"/><rect fill="#F1F1F1" height="33.9688" rx="12.5" ry="12.5" style="stroke:#181818;stroke-width:0.5;" width="229.0801" x="1416.5049" y="828.8613"/><text fill="#000000" font-family="'Segoe UI'" font-size="12" lengthAdjust="spacing" textLength="209.0801" x="1426.5049" y="850">Ubah status menjadi "Perlu Revisi"</text><rect fill="#F1F1F1" height="33.9688" rx="12.5" ry="12.5" style="stroke:#181818;stroke-width:0.5;" width="201.2891" x="1655.585" y="1015.7832"/><text fill="#000000" font-family="'Segoe UI'" font-size="12" lengthAdjust="spacing" textLength="181.2891" x="1665.585" y="1036.9219">Ubah status menjadi "Ditolak"</text><line style="stroke:#000000;stroke-width:1.5;" x1="897.8711" x2="897.8711" y1="16.3301" y2="1331.6426"/><rect fill="#F1F1F1" height="33.9688" rx="12.5" ry="12.5" style="stroke:#181818;stroke-width:0.5;" width="239.6035" x="2208.8564" y="608.9863"/><text fill="#000000" font-family="'Segoe UI'" font-size="12" lengthAdjust="spacing" textLength="219.6035" x="2218.8564" y="630.125">Buka notifikasi &amp; antrean pengajuan</text><rect fill="#F1F1F1" height="33.9688" rx="12.5" ry="12.5" style="stroke:#181818;stroke-width:0.5;" width="245.8203" x="2205.748" y="662.9551"/><text fill="#000000" font-family="'Segoe UI'" font-size="12" lengthAdjust="spacing" textLength="225.8203" x="2215.748" y="684.0938">Tinjau data warga, lampiran &amp; draf AI</text><polygon fill="#F1F1F1" points="2000.7446,716.9238,2156.2173,716.9238,2168.2173,728.9238,2156.2173,740.9238,2000.7446,740.9238,1988.7446,728.9238,2000.7446,716.9238" style="stroke:#181818;stroke-width:0.5;stroke-linejoin:miter;stroke-miterlimit:10;"/><text fill="#000000" font-family="'Segoe UI'" font-size="12" lengthAdjust="spacing" textLength="38.25" x="2082.481" y="752.0625">Setuju</text><text fill="#000000" font-family="'Segoe UI'" font-size="12" lengthAdjust="spacing" textLength="155.4727" x="2000.7446" y="733.0781">Keputusan Tindak Lanjut?</text><rect fill="#F1F1F1" height="33.9688" rx="12.5" ry="12.5" style="stroke:#181818;stroke-width:0.5;" width="172.0156" x="1866.874" y="886.8301"/><text fill="#000000" font-family="'Segoe UI'" font-size="12" lengthAdjust="spacing" textLength="152.0156" x="1876.874" y="907.9688">Masukkan PIN Keamanan</text><rect fill="#F1F1F1" height="33.9688" rx="12.5" ry="12.5" style="stroke:#181818;stroke-width:0.5;" width="161.6445" x="2123.2578" y="886.8301"/><text fill="#000000" font-family="'Segoe UI'" font-size="12" lengthAdjust="spacing" textLength="141.6445" x="2133.2578" y="907.9688">Cetak berkas surat fisik</text><rect fill="#F1F1F1" height="33.9688" rx="12.5" ry="12.5" style="stroke:#181818;stroke-width:0.5;" width="231.4707" x="2088.3447" y="955.7988"/><text fill="#000000" font-family="'Segoe UI'" font-size="12" lengthAdjust="spacing" textLength="211.4707" x="2098.3447" y="976.9375">Tandatangani surat dengan pulpen</text><rect fill="#F1F1F1" height="33.9688" rx="12.5" ry="12.5" style="stroke:#181818;stroke-width:0.5;" width="260.709" x="2073.7256" y="1024.7676"/><text fill="#000000" font-family="'Segoe UI'" font-size="12" lengthAdjust="spacing" textLength="240.709" x="2083.7256" y="1045.9063">Tekan tombol "Konfirmasi Siap Diambil"</text><polygon fill="#F1F1F1" points="2444.1875,716.9238,2514.2363,716.9238,2526.2363,728.9238,2514.2363,740.9238,2444.1875,740.9238,2432.1875,728.9238,2444.1875,716.9238" style="stroke:#181818;stroke-width:0.5;stroke-linejoin:miter;stroke-miterlimit:10;"/><text fill="#000000" font-family="'Segoe UI'" font-size="12" lengthAdjust="spacing" textLength="70.0488" x="2444.1875" y="733.0781">Perlu Revisi</text><text fill="#000000" font-family="'Segoe UI'" font-size="12" lengthAdjust="spacing" textLength="32.3086" x="2526.2363" y="726.0938">Tolak</text><rect fill="#F1F1F1" height="33.9688" rx="12.5" ry="12.5" style="stroke:#181818;stroke-width:0.5;" width="204.5645" x="2376.9297" y="760.9238"/><text fill="#000000" font-family="'Segoe UI'" font-size="12" lengthAdjust="spacing" textLength="184.5645" x="2386.9297" y="782.0625">Tuliskan catatan revisi spesifik</text><rect fill="#F1F1F1" height="33.9688" rx="12.5" ry="12.5" style="stroke:#181818;stroke-width:0.5;" width="179.1875" x="2591.4941" y="946.8145"/><text fill="#000000" font-family="'Segoe UI'" font-size="12" lengthAdjust="spacing" textLength="159.1875" x="2601.4941" y="967.9531">Tuliskan alasan penolakan</text><line style="stroke:#000000;stroke-width:1.5;" x1="1860.874" x2="1860.874" y1="16.3301" y2="1331.6426"/><line style="stroke:#000000;stroke-width:1.5;" x1="2774.6816" x2="2774.6816" y1="16.3301" y2="1331.6426"/><line style="stroke:#181818;stroke-width:1;" x1="431.9111" x2="431.9111" y1="55.2988" y2="75.2988"/><polygon fill="#181818" points="427.9111,65.2988,431.9111,75.2988,435.9111,65.2988,431.9111,69.2988" style="stroke:#181818;stroke-width:1;stroke-linejoin:miter;stroke-miterlimit:10;"/><line style="stroke:#181818;stroke-width:1;" x1="431.9111" x2="431.9111" y1="109.2676" y2="129.2676"/><polygon fill="#181818" points="427.9111,119.2676,431.9111,129.2676,435.9111,119.2676,431.9111,123.2676" style="stroke:#181818;stroke-width:1;stroke-linejoin:miter;stroke-miterlimit:10;"/><line style="stroke:#181818;stroke-width:1;" x1="431.9111" x2="431.9111" y1="163.2363" y2="183.2363"/><polygon fill="#181818" points="427.9111,173.2363,431.9111,183.2363,435.9111,173.2363,431.9111,177.2363" style="stroke:#181818;stroke-width:1;stroke-linejoin:miter;stroke-miterlimit:10;"/><line style="stroke:#181818;stroke-width:1;" x1="431.9111" x2="431.9111" y1="231.1738" y2="251.1738"/><polygon fill="#181818" points="427.9111,241.1738,431.9111,251.1738,435.9111,241.1738,431.9111,245.1738" style="stroke:#181818;stroke-width:1;stroke-linejoin:miter;stroke-miterlimit:10;"/><line style="stroke:#181818;stroke-width:1;" x1="431.9111" x2="431.9111" y1="285.1426" y2="305.1426"/><polygon fill="#181818" points="427.9111,295.1426,431.9111,305.1426,435.9111,295.1426,431.9111,299.1426" style="stroke:#181818;stroke-width:1;stroke-linejoin:miter;stroke-miterlimit:10;"/><line style="stroke:#181818;stroke-width:1;" x1="110.0596" x2="110.0596" y1="1181.6738" y2="1201.6738"/><polygon fill="#181818" points="106.0596,1191.6738,110.0596,1201.6738,114.0596,1191.6738,110.0596,1195.6738" style="stroke:#181818;stroke-width:1;stroke-linejoin:miter;stroke-miterlimit:10;"/><line style="stroke:#181818;stroke-width:1;" x1="307.333" x2="307.333" y1="1181.6738" y2="1201.6738"/><polygon fill="#181818" points="303.333,1191.6738,307.333,1201.6738,311.333,1191.6738,307.333,1195.6738" style="stroke:#181818;stroke-width:1;stroke-linejoin:miter;stroke-miterlimit:10;"/><line style="stroke:#181818;stroke-width:1;" x1="582.4648" x2="582.4648" y1="931.7988" y2="966.7988"/><polygon fill="#181818" points="578.4648,956.7988,582.4648,966.7988,586.4648,956.7988,582.4648,960.7988" style="stroke:#181818;stroke-width:1;stroke-linejoin:miter;stroke-miterlimit:10;"/><line style="stroke:#181818;stroke-width:1;" x1="582.4648" x2="582.4648" y1="1000.7676" y2="1035.7676"/><polygon fill="#181818" points="578.4648,1025.7676,582.4648,1035.7676,586.4648,1025.7676,582.4648,1029.7676" style="stroke:#181818;stroke-width:1;stroke-linejoin:miter;stroke-miterlimit:10;"/><line style="stroke:#181818;stroke-width:1;" x1="800.5566" x2="800.5566" y1="1118.7207" y2="1289.6426"/><polygon fill="#181818" points="796.5566,1279.6426,800.5566,1289.6426,804.5566,1279.6426,800.5566,1283.6426" style="stroke:#181818;stroke-width:1;stroke-linejoin:miter;stroke-miterlimit:10;"/><line style="stroke:#181818;stroke-width:1;" x1="431.9111" x2="901.2012" y1="1289.6426" y2="1289.6426"/><line style="stroke:#181818;stroke-width:1;" x1="1245.3311" x2="1245.3311" y1="481.0488" y2="501.0488"/><polygon fill="#181818" points="1241.3311,491.0488,1245.3311,501.0488,1249.3311,491.0488,1245.3311,495.0488" style="stroke:#181818;stroke-width:1;stroke-linejoin:miter;stroke-miterlimit:10;"/><line style="stroke:#181818;stroke-width:1;" x1="1245.3311" x2="1245.3311" y1="535.0176" y2="555.0176"/><polygon fill="#181818" points="1241.3311,545.0176,1245.3311,555.0176,1249.3311,545.0176,1245.3311,549.0176" style="stroke:#181818;stroke-width:1;stroke-linejoin:miter;stroke-miterlimit:10;"/><line style="stroke:#181818;stroke-width:1;" x1="1515.6514" x2="1515.6514" y1="481.0488" y2="501.0488"/><polygon fill="#181818" points="1511.6514,491.0488,1515.6514,501.0488,1519.6514,491.0488,1515.6514,495.0488" style="stroke:#181818;stroke-width:1;stroke-linejoin:miter;stroke-miterlimit:10;"/><line style="stroke:#181818;stroke-width:1;" x1="1300.335" x2="1245.3311" y1="425.0801" y2="425.0801"/><line style="stroke:#181818;stroke-width:1;" x1="1245.3311" x2="1245.3311" y1="425.0801" y2="447.0801"/><polygon fill="#181818" points="1241.3311,437.0801,1245.3311,447.0801,1249.3311,437.0801,1245.3311,441.0801" style="stroke:#181818;stroke-width:1;stroke-linejoin:miter;stroke-miterlimit:10;"/><line style="stroke:#181818;stroke-width:1;" x1="1460.6475" x2="1515.6514" y1="425.0801" y2="425.0801"/><line style="stroke:#181818;stroke-width:1;" x1="1515.6514" x2="1515.6514" y1="425.0801" y2="447.0801"/><polygon fill="#181818" points="1511.6514,437.0801,1515.6514,447.0801,1519.6514,437.0801,1515.6514,441.0801" style="stroke:#181818;stroke-width:1;stroke-linejoin:miter;stroke-miterlimit:10;"/><line style="stroke:#181818;stroke-width:1;" x1="1245.3311" x2="1245.3311" y1="588.9863" y2="593.9863"/><line style="stroke:#181818;stroke-width:1;" x1="1245.3311" x2="2328.6582" y1="593.9863" y2="593.9863"/><line style="stroke:#181818;stroke-width:1;" x1="2328.6582" x2="2328.6582" y1="593.9863" y2="608.9863"/><polygon fill="#181818" points="2324.6582,598.9863,2328.6582,608.9863,2332.6582,598.9863,2328.6582,602.9863" style="stroke:#181818;stroke-width:1;stroke-linejoin:miter;stroke-miterlimit:10;"/><line style="stroke:#181818;stroke-width:1;" x1="1380.4912" x2="1380.4912" y1="393.0801" y2="413.0801"/><polygon fill="#181818" points="1376.4912,403.0801,1380.4912,413.0801,1384.4912,403.0801,1380.4912,407.0801" style="stroke:#181818;stroke-width:1;stroke-linejoin:miter;stroke-miterlimit:10;"/><line style="stroke:#181818;stroke-width:1;" x1="1004.7148" x2="1004.7148" y1="989.7676" y2="1024.7676"/><polygon fill="#181818" points="1000.7148,1014.7676,1004.7148,1024.7676,1008.7148,1014.7676,1004.7148,1018.7676" style="stroke:#181818;stroke-width:1;stroke-linejoin:miter;stroke-miterlimit:10;"/><line style="stroke:#181818;stroke-width:1;" x1="1004.7148" x2="1004.7148" y1="1058.7363" y2="1093.7363"/><polygon fill="#181818" points="1000.7148,1083.7363,1004.7148,1093.7363,1008.7148,1083.7363,1004.7148,1087.7363" style="stroke:#181818;stroke-width:1;stroke-linejoin:miter;stroke-miterlimit:10;"/><line style="stroke:#181818;stroke-width:1;" x1="1130.314" x2="1130.314" y1="808.8613" y2="842.8301"/><polygon fill="#181818" points="1126.314,832.8301,1130.314,842.8301,1134.314,832.8301,1130.314,836.8301" style="stroke:#181818;stroke-width:1;stroke-linejoin:miter;stroke-miterlimit:10;"/><line style="stroke:#181818;stroke-width:1;" x1="1130.314" x2="1130.314" y1="1269.6426" y2="1289.6426"/><polygon fill="#181818" points="1126.314,1279.6426,1130.314,1289.6426,1134.314,1279.6426,1130.314,1283.6426" style="stroke:#181818;stroke-width:1;stroke-linejoin:miter;stroke-miterlimit:10;"/><line style="stroke:#181818;stroke-width:1;" x1="893.8711" x2="1380.4912" y1="1289.6426" y2="1289.6426"/><line style="stroke:#181818;stroke-width:1;" x1="2328.6582" x2="2328.6582" y1="642.9551" y2="662.9551"/><polygon fill="#181818" points="2324.6582,652.9551,2328.6582,662.9551,2332.6582,652.9551,2328.6582,656.9551" style="stroke:#181818;stroke-width:1;stroke-linejoin:miter;stroke-miterlimit:10;"/><line style="stroke:#181818;stroke-width:1;" x1="2204.0801" x2="2204.0801" y1="920.7988" y2="955.7988"/><polygon fill="#181818" points="2200.0801,945.7988,2204.0801,955.7988,2208.0801,945.7988,2204.0801,949.7988" style="stroke:#181818;stroke-width:1;stroke-linejoin:miter;stroke-miterlimit:10;"/><line style="stroke:#181818;stroke-width:1;" x1="2204.0801" x2="2204.0801" y1="989.7676" y2="1024.7676"/><polygon fill="#181818" points="2200.0801,1014.7676,2204.0801,1024.7676,2208.0801,1014.7676,2204.0801,1018.7676" style="stroke:#181818;stroke-width:1;stroke-linejoin:miter;stroke-miterlimit:10;"/><line style="stroke:#181818;stroke-width:1;" x1="2479.2119" x2="2479.2119" y1="740.9238" y2="760.9238"/><polygon fill="#181818" points="2475.2119,750.9238,2479.2119,760.9238,2483.2119,750.9238,2479.2119,754.9238" style="stroke:#181818;stroke-width:1;stroke-linejoin:miter;stroke-miterlimit:10;"/><line style="stroke:#181818;stroke-width:1;" x1="2168.2173" x2="2432.1875" y1="728.9238" y2="728.9238"/><polygon fill="#181818" points="2422.1875,724.9238,2432.1875,728.9238,2422.1875,732.9238,2426.1875,728.9238" style="stroke:#181818;stroke-width:1;stroke-linejoin:miter;stroke-miterlimit:10;"/><line style="stroke:#181818;stroke-width:1;" x1="2328.6582" x2="2328.6582" y1="696.9238" y2="701.9238"/><line style="stroke:#181818;stroke-width:1;" x1="2328.6582" x2="2078.481" y1="701.9238" y2="701.9238"/><line style="stroke:#181818;stroke-width:1;" x1="2078.481" x2="2078.481" y1="701.9238" y2="716.9238"/><polygon fill="#181818" points="2074.481,706.9238,2078.481,716.9238,2082.481,706.9238,2078.481,710.9238" style="stroke:#181818;stroke-width:1;stroke-linejoin:miter;stroke-miterlimit:10;"/><line style="stroke:#181818;stroke-width:1;" x1="2526.2363" x2="2681.0879" y1="728.9238" y2="728.9238"/><line style="stroke:#181818;stroke-width:1;" x1="2681.0879" x2="2681.0879" y1="728.9238" y2="946.8145"/><polygon fill="#181818" points="2677.0879,936.8145,2681.0879,946.8145,2685.0879,936.8145,2681.0879,940.8145" style="stroke:#181818;stroke-width:1;stroke-linejoin:miter;stroke-miterlimit:10;"/><line style="stroke:#181818;stroke-width:1;" x1="431.9111" x2="431.9111" y1="339.1113" y2="344.1113"/><line style="stroke:#181818;stroke-width:1;" x1="431.9111" x2="1380.4912" y1="344.1113" y2="344.1113"/><line style="stroke:#181818;stroke-width:1;" x1="1380.4912" x2="1380.4912" y1="344.1113" y2="359.1113"/><polygon fill="#181818" points="1376.4912,349.1113,1380.4912,359.1113,1384.4912,349.1113,1380.4912,353.1113" style="stroke:#181818;stroke-width:1;stroke-linejoin:miter;stroke-miterlimit:10;"/><line style="stroke:#181818;stroke-width:1;" x1="1952.8818" x2="1952.8818" y1="920.7988" y2="938.2988"/><line style="stroke:#181818;stroke-width:1;" x1="1952.8818" x2="1004.7148" y1="938.2988" y2="938.2988"/><line style="stroke:#181818;stroke-width:1;" x1="1004.7148" x2="1004.7148" y1="938.2988" y2="955.7988"/><polygon fill="#181818" points="1000.7148,945.7988,1004.7148,955.7988,1008.7148,945.7988,1004.7148,949.7988" style="stroke:#181818;stroke-width:1;stroke-linejoin:miter;stroke-miterlimit:10;"/><line style="stroke:#181818;stroke-width:1;" x1="1004.7148" x2="1004.7148" y1="1127.7051" y2="1132.7051"/><line style="stroke:#181818;stroke-width:1;" x1="1004.7148" x2="110.0596" y1="1132.7051" y2="1132.7051"/><line style="stroke:#181818;stroke-width:1;" x1="110.0596" x2="110.0596" y1="1132.7051" y2="1147.7051"/><polygon fill="#181818" points="106.0596,1137.7051,110.0596,1147.7051,114.0596,1137.7051,110.0596,1141.7051" style="stroke:#181818;stroke-width:1;stroke-linejoin:miter;stroke-miterlimit:10;"/><line style="stroke:#181818;stroke-width:1;" x1="2204.0801" x2="2204.0801" y1="1058.7363" y2="1076.2363"/><line style="stroke:#181818;stroke-width:1;" x1="2204.0801" x2="1255.9131" y1="1076.2363" y2="1076.2363"/><line style="stroke:#181818;stroke-width:1;" x1="1255.9131" x2="1255.9131" y1="1076.2363" y2="1093.7363"/><polygon fill="#181818" points="1251.9131,1083.7363,1255.9131,1093.7363,1259.9131,1083.7363,1255.9131,1087.7363" style="stroke:#181818;stroke-width:1;stroke-linejoin:miter;stroke-miterlimit:10;"/><line style="stroke:#181818;stroke-width:1;" x1="1255.9131" x2="1255.9131" y1="1127.7051" y2="1132.7051"/><line style="stroke:#181818;stroke-width:1;" x1="1255.9131" x2="307.333" y1="1132.7051" y2="1132.7051"/><line style="stroke:#181818;stroke-width:1;" x1="307.333" x2="307.333" y1="1132.7051" y2="1147.7051"/><polygon fill="#181818" points="303.333,1137.7051,307.333,1147.7051,311.333,1137.7051,307.333,1141.7051" style="stroke:#181818;stroke-width:1;stroke-linejoin:miter;stroke-miterlimit:10;"/><line style="stroke:#181818;stroke-width:1;" x1="1047.8608" x2="1035.8608" y1="854.8301" y2="854.8301"/><line style="stroke:#181818;stroke-width:1;" x1="1035.8608" x2="1035.8608" y1="854.8301" y2="872.8301"/><line style="stroke:#181818;stroke-width:1;" x1="1035.8608" x2="1952.8818" y1="872.8301" y2="872.8301"/><line style="stroke:#181818;stroke-width:1;" x1="1952.8818" x2="1952.8818" y1="872.8301" y2="886.8301"/><polygon fill="#181818" points="1948.8818,876.8301,1952.8818,886.8301,1956.8818,876.8301,1952.8818,880.8301" style="stroke:#181818;stroke-width:1;stroke-linejoin:miter;stroke-miterlimit:10;"/><line style="stroke:#181818;stroke-width:1;" x1="1212.7671" x2="2204.0801" y1="854.8301" y2="854.8301"/><line style="stroke:#181818;stroke-width:1;" x1="2204.0801" x2="2204.0801" y1="854.8301" y2="886.8301"/><polygon fill="#181818" points="2200.0801,876.8301,2204.0801,886.8301,2208.0801,876.8301,2204.0801,880.8301" style="stroke:#181818;stroke-width:1;stroke-linejoin:miter;stroke-miterlimit:10;"/><line style="stroke:#181818;stroke-width:1;" x1="110.0596" x2="110.0596" y1="1235.6426" y2="1257.6426"/><line style="stroke:#181818;stroke-width:1;" x1="110.0596" x2="1118.314" y1="1257.6426" y2="1257.6426"/><polygon fill="#181818" points="1108.314,1253.6426,1118.314,1257.6426,1108.314,1261.6426,1112.314,1257.6426" style="stroke:#181818;stroke-width:1;stroke-linejoin:miter;stroke-miterlimit:10;"/><line style="stroke:#181818;stroke-width:1;" x1="307.333" x2="307.333" y1="1235.6426" y2="1239.6426"/><line style="stroke:#181818;stroke-width:1;" x1="307.333" x2="1160.314" y1="1239.6426" y2="1239.6426"/><line style="stroke:#181818;stroke-width:1;" x1="1160.314" x2="1160.314" y1="1239.6426" y2="1257.6426"/><line style="stroke:#181818;stroke-width:1;" x1="1160.314" x2="1142.314" y1="1257.6426" y2="1257.6426"/><polygon fill="#181818" points="1152.314,1253.6426,1142.314,1257.6426,1152.314,1261.6426,1148.314,1257.6426" style="stroke:#181818;stroke-width:1;stroke-linejoin:miter;stroke-miterlimit:10;"/><line style="stroke:#181818;stroke-width:1;" x1="2479.2119" x2="2479.2119" y1="794.8926" y2="812.3926"/><line style="stroke:#181818;stroke-width:1;" x1="2479.2119" x2="1531.0449" y1="812.3926" y2="812.3926"/><line style="stroke:#181818;stroke-width:1;" x1="1531.0449" x2="1531.0449" y1="812.3926" y2="828.8613"/><polygon fill="#181818" points="1527.0449,818.8613,1531.0449,828.8613,1535.0449,818.8613,1531.0449,822.8613" style="stroke:#181818;stroke-width:1;stroke-linejoin:miter;stroke-miterlimit:10;"/><line style="stroke:#181818;stroke-width:1;" x1="1531.0449" x2="1531.0449" y1="862.8301" y2="880.3301"/><line style="stroke:#181818;stroke-width:1;" x1="1531.0449" x2="582.4648" y1="880.3301" y2="880.3301"/><line style="stroke:#181818;stroke-width:1;" x1="582.4648" x2="582.4648" y1="880.3301" y2="897.8301"/><polygon fill="#181818" points="578.4648,887.8301,582.4648,897.8301,586.4648,887.8301,582.4648,891.8301" style="stroke:#181818;stroke-width:1;stroke-linejoin:miter;stroke-miterlimit:10;"/><line style="stroke:#181818;stroke-width:1;" x1="2681.0879" x2="2681.0879" y1="980.7832" y2="998.2832"/><line style="stroke:#181818;stroke-width:1;" x1="2681.0879" x2="1756.2295" y1="998.2832" y2="998.2832"/><line style="stroke:#181818;stroke-width:1;" x1="1756.2295" x2="1756.2295" y1="998.2832" y2="1015.7832"/><polygon fill="#181818" points="1752.2295,1005.7832,1756.2295,1015.7832,1760.2295,1005.7832,1756.2295,1009.7832" style="stroke:#181818;stroke-width:1;stroke-linejoin:miter;stroke-miterlimit:10;"/><line style="stroke:#181818;stroke-width:1;" x1="1756.2295" x2="1756.2295" y1="1049.752" y2="1067.252"/><line style="stroke:#181818;stroke-width:1;" x1="1756.2295" x2="800.5566" y1="1067.252" y2="1067.252"/><line style="stroke:#181818;stroke-width:1;" x1="800.5566" x2="800.5566" y1="1067.252" y2="1084.752"/><polygon fill="#181818" points="796.5566,1074.752,800.5566,1084.752,804.5566,1074.752,800.5566,1078.752" style="stroke:#181818;stroke-width:1;stroke-linejoin:miter;stroke-miterlimit:10;"/><line style="stroke:#181818;stroke-width:1;" x1="2078.481" x2="2078.481" y1="740.9238" y2="744.9238"/><line style="stroke:#181818;stroke-width:1;" x1="2078.481" x2="1130.314" y1="744.9238" y2="744.9238"/><line style="stroke:#181818;stroke-width:1;" x1="1130.314" x2="1130.314" y1="744.9238" y2="774.8926"/><polygon fill="#181818" points="1126.314,764.8926,1130.314,774.8926,1134.314,764.8926,1130.314,768.8926" style="stroke:#181818;stroke-width:1;stroke-linejoin:miter;stroke-miterlimit:10;"/><line style="stroke:#181818;stroke-width:1;" x1="2328.6582" x2="2328.6582" y1="1289.6426" y2="1294.6426"/><line style="stroke:#181818;stroke-width:1;" x1="2328.6582" x2="431.9111" y1="1294.6426" y2="1294.6426"/><line style="stroke:#181818;stroke-width:1;" x1="431.9111" x2="431.9111" y1="1294.6426" y2="1309.6426"/><polygon fill="#181818" points="427.9111,1299.6426,431.9111,1309.6426,435.9111,1299.6426,431.9111,1303.6426" style="stroke:#181818;stroke-width:1;stroke-linejoin:miter;stroke-miterlimit:10;"/><text fill="#000000" font-family="'Segoe UI'" font-size="12" lengthAdjust="spacing" textLength="39.123" x="439.374" y="27.4688">Warga</text><text fill="#000000" font-family="'Segoe UI'" font-size="12" lengthAdjust="spacing" textLength="40.9805" x="1358.8823" y="27.4688">Sistem</text><text fill="#000000" font-family="'Segoe UI'" font-size="12" lengthAdjust="spacing" textLength="54.3984" x="2290.5786" y="27.4688">Ketua RT</text><?plantuml-src XLLDQzj04BthLmmw10SAfJqwXvB4f9XyuCPEIg6NSRIonzfTYVr8eFZ7TsPNijNYDXSXQsTdtdlpPkmRiXqwD52f6gCEDwqD3sWKb4krQHKypSl2dmfQqYy5dpwF3lqMg_QDx0Pgr5uLnVuxkWtk2n_GXM9w5Hi4eso4ydB7xnQMqM4eBuhfWZHjOQSiUV3o4SwWKProEg8zd1iLsaf1G5kXF3TeVzh9Z3OKKCEtH_W8L-XnUyutdkncWrkesYPoIUYKhM8J6TkaxJor5hL4hPJ02ArPjnhAMt9aOA4uyOxhCh1YloGVbDaNqsVKLA4dngKvei6ERv8dmKSrJERo2dVvYE6d-2_d4BPSVl83pmk0wPACNEk64Z1P1WpHJw6S4IPHIiR5aJUjCr5BlSfXtOloIWXVbLNyJgyABkSfDCEsRQ2Q6hbnJBz65namtAeG4HvN5uNYpi1anLIQX6Y5fYFT950-FTqQINxNf7Gb1NnekuBrevhr63Bj-twEofu1sk3Kc9z8J7Q74IeC26_YXm-WfQRZkBDCJdWa3MzL5raDFk5RZ13kqEvYEAYuvEAxABWFVH4AAc0dY1zQqxfiAdXKtf2WbxptsJYhP9nLCiuXvz4-afSp7ndAp-az-jX8ziNyWNL4WrPufT0Z2EcjCXWaa8ruBUMUbUkboU7JldKArihnPrZCRbXbjc9__hHcn_fa29cJ7LOaOwYvCLJs9VkHIl4hBc36BHZoiDUtuo9k42DtFm_9IRRNh6KpNCscgzdaJPyvAPWdZ_hZIdhDBO-Qkpw4_JbMhQt96R78adWssEbcJRey9U9f2KxS-gyEmFVUkASTlJInwq5TolNCPe1EuABXWZ8OB4wok4Wadbd8yc4RlVA5vBYnKjDLrEI5v0lBmOAmn188dgT8G5pyvT6JlCOb4gyZgnESSeKqyOiyf9Jt3tJ8jgvvOHodTxGOU8lmsXkD973F0hviXrtGwhmB_i4GUGlbcPR0dE1TQZCA4lq-gr7QOSKS_ZLuxVm6?></g></svg>