<svg xmlns="http://www.w3.org/2000/svg" xmlns:xlink="http://www.w3.org/1999/xlink" contentStyleType="text/css" data-diagram-type="ACTIVITY" height="825px" preserveAspectRatio="none" style="width:1257px;height:825px;background:#FFFFFF;" version="1.1" viewBox="0 0 1257 825" width="1257px" zoomAndPan="magnify"><?plantuml 1.2026.6?><defs/><g><rect fill="none" height="13.9688" style="stroke:none;stroke-width:1;" width="1210.0996" x="20" y="16.3301"/><ellipse cx="286.6777" cy="45.2988" fill="#222222" rx="10" ry="10" style="stroke:#222222;stroke-width:1;"/><rect fill="#F1F1F1" height="33.9688" rx="12.5" ry="12.5" style="stroke:#181818;stroke-width:0.5;" width="196.2324" x="188.5615" y="75.2988"/><text fill="#000000" font-family="'Segoe UI'" font-size="12" lengthAdjust="spacing" textLength="176.2324" x="198.5615" y="96.4375">Buka tab layanan "Tanya RT"</text><rect fill="#F1F1F1" height="33.9688" rx="12.5" ry="12.5" style="stroke:#181818;stroke-width:0.5;" width="243.4883" x="164.9336" y="129.2676"/><text fill="#000000" font-family="'Segoe UI'" font-size="12" lengthAdjust="spacing" textLength="223.4883" x="174.9336" y="150.4063">Ketikkan pertanyaan pada input chat</text><rect fill="#F1F1F1" height="33.9688" rx="12.5" ry="12.5" style="stroke:#181818;stroke-width:0.5;" width="176.5449" x="198.4053" y="183.2363"/><text fill="#000000" font-family="'Segoe UI'" font-size="12" lengthAdjust="spacing" textLength="156.5449" x="208.4053" y="204.375">Tekan tombol kirim pesan</text><rect fill="#F1F1F1" height="33.9688" rx="12.5" ry="12.5" style="stroke:#181818;stroke-width:0.5;" width="195.1191" x="26" y="605.0176"/><text fill="#000000" font-family="'Segoe UI'" font-size="12" lengthAdjust="spacing" textLength="175.1191" x="36" y="626.1563">Membaca informasi resmi RT</text><ellipse cx="123.5596" cy="669.9863" fill="none" rx="11" ry="11" style="stroke:#222222;stroke-width:1;"/><ellipse cx="123.5596" cy="669.9863" fill="#222222" rx="6" ry="6" style="stroke:#222222;stroke-width:1;"/><rect fill="#F1F1F1" height="33.9688" rx="12.5" ry="12.5" style="stroke:#181818;stroke-width:0.5;" width="297.4473" x="301.0723" y="605.0176"/><text fill="#000000" font-family="'Segoe UI'" font-size="12" lengthAdjust="spacing" textLength="277.4473" x="311.0723" y="626.1563">Klik tombol "Hubungi Ketua RT via WhatsApp"</text><rect fill="#F1F1F1" height="33.9688" rx="12.5" ry="12.5" style="stroke:#181818;stroke-width:0.5;" width="266.8496" x="316.3711" y="658.9863"/><text fill="#000000" font-family="'Segoe UI'" font-size="12" lengthAdjust="spacing" textLength="246.8496" x="326.3711" y="680.125">Dialihkan ke aplikasi WhatsApp Ketua RT</text><rect fill="#F1F1F1" height="33.9688" rx="12.5" ry="12.5" style="stroke:#181818;stroke-width:0.5;" width="226.3496" x="336.6211" y="712.9551"/><text fill="#000000" font-family="'Segoe UI'" font-size="12" lengthAdjust="spacing" textLength="206.3496" x="346.6211" y="734.0938">Kirim pesan langsung ke Ketua RT</text><ellipse cx="449.7959" cy="777.9238" fill="none" rx="11" ry="11" style="stroke:#222222;stroke-width:1;"/><ellipse cx="449.7959" cy="777.9238" fill="#222222" rx="6" ry="6" style="stroke:#222222;stroke-width:1;"/><line style="stroke:#000000;stroke-width:1.5;" x1="20" x2="20" y1="16.3301" y2="804.9238"/><rect fill="#F1F1F1" height="33.9688" rx="12.5" ry="12.5" style="stroke:#181818;stroke-width:0.5;" width="217.7773" x="820.2617" y="237.2051"/><text fill="#000000" font-family="'Segoe UI'" font-size="12" lengthAdjust="spacing" textLength="197.7773" x="830.2617" y="258.3438">Simpan pesan warga ke ChatLog</text><rect fill="#F1F1F1" height="33.9688" rx="12.5" ry="12.5" style="stroke:#181818;stroke-width:0.5;" width="289.4785" x="784.4111" y="291.1738"/><text fill="#000000" font-family="'Segoe UI'" font-size="12" lengthAdjust="spacing" textLength="269.4785" x="794.4111" y="312.3125">Generate vector embedding dari pertanyaan</text><rect fill="#F1F1F1" height="33.9688" rx="12.5" ry="12.5" style="stroke:#181818;stroke-width:0.5;" width="331.5371" x="763.3818" y="345.1426"/><text fill="#000000" font-family="'Segoe UI'" font-size="12" lengthAdjust="spacing" textLength="311.5371" x="773.3818" y="366.2813">Hitung Cosine Similarity dengan Knowledge Chunks</text><polygon fill="#F1F1F1" points="854.3672,399.1113,1003.9336,399.1113,1015.9336,411.1113,1003.9336,423.1113,854.3672,423.1113,842.3672,411.1113,854.3672,399.1113" style="stroke:#181818;stroke-width:0.5;stroke-linejoin:miter;stroke-miterlimit:10;"/><text fill="#000000" font-family="'Segoe UI'" font-size="12" lengthAdjust="spacing" textLength="149.5664" x="854.3672" y="415.2656">Skor Relevansi &gt;= 0.70?</text><text fill="#000000" font-family="'Segoe UI'" font-size="12" lengthAdjust="spacing" textLength="146.959" x="695.4082" y="408.2813">Ya - Jawaban Ditemukan</text><text fill="#000000" font-family="'Segoe UI'" font-size="12" lengthAdjust="spacing" textLength="137.8887" x="1015.9336" y="408.2813">Tidak - Di Luar Domain</text><rect fill="#F1F1F1" height="33.9688" rx="12.5" ry="12.5" style="stroke:#181818;stroke-width:0.5;" width="289.4785" x="621.293" y="443.1113"/><text fill="#000000" font-family="'Segoe UI'" font-size="12" lengthAdjust="spacing" textLength="269.4785" x="631.293" y="464.25">Ambil potongan dokumen regulasi RT terkait</text><rect fill="#F1F1F1" height="33.9688" rx="12.5" ry="12.5" style="stroke:#181818;stroke-width:0.5;" width="238.8301" x="646.6172" y="497.0801"/><text fill="#000000" font-family="'Segoe UI'" font-size="12" lengthAdjust="spacing" textLength="218.8301" x="656.6172" y="518.2188">Sintesis jawaban akurat melalui LLM</text><rect fill="#F1F1F1" height="33.9688" rx="12.5" ry="12.5" style="stroke:#181818;stroke-width:0.5;" width="315.0254" x="608.5195" y="551.0488"/><text fill="#000000" font-family="'Segoe UI'" font-size="12" lengthAdjust="spacing" textLength="295.0254" x="618.5195" y="572.1875">Tampilkan gelembung jawaban + Badge Sumber</text><rect fill="#F1F1F1" height="33.9688" rx="12.5" ry="12.5" style="stroke:#181818;stroke-width:0.5;" width="233.2168" x="975.6602" y="443.1113"/><text fill="#000000" font-family="'Segoe UI'" font-size="12" lengthAdjust="spacing" textLength="213.2168" x="985.6602" y="464.25">Susun ringkasan pertanyaan warga</text><rect fill="#F1F1F1" height="33.9688" rx="12.5" ry="12.5" style="stroke:#181818;stroke-width:0.5;" width="257.5859" x="963.4756" y="497.0801"/><text fill="#000000" font-family="'Segoe UI'" font-size="12" lengthAdjust="spacing" textLength="237.5859" x="973.4756" y="518.2188">Tampilkan pesan maaf &amp; kartu eskalasi</text><rect fill="#F1F1F1" height="33.9688" rx="12.5" ry="12.5" style="stroke:#181818;stroke-width:0.5;" width="265.8477" x="959.3447" y="551.0488"/><text fill="#000000" font-family="'Segoe UI'" font-size="12" lengthAdjust="spacing" textLength="245.8477" x="969.3447" y="572.1875">Buat tautan WhatsApp otomatis (wa.me)</text><line style="stroke:#000000;stroke-width:1.5;" x1="602.5195" x2="602.5195" y1="16.3301" y2="804.9238"/><line style="stroke:#000000;stroke-width:1.5;" x1="1229.1924" x2="1229.1924" y1="16.3301" y2="804.9238"/><line style="stroke:#181818;stroke-width:1;" x1="286.6777" x2="286.6777" y1="55.2988" y2="75.2988"/><polygon fill="#181818" points="282.6777,65.2988,286.6777,75.2988,290.6777,65.2988,286.6777,69.2988" style="stroke:#181818;stroke-width:1;stroke-linejoin:miter;stroke-miterlimit:10;"/><line style="stroke:#181818;stroke-width:1;" x1="286.6777" x2="286.6777" y1="109.2676" y2="129.2676"/><polygon fill="#181818" points="282.6777,119.2676,286.6777,129.2676,290.6777,119.2676,286.6777,123.2676" style="stroke:#181818;stroke-width:1;stroke-linejoin:miter;stroke-miterlimit:10;"/><line style="stroke:#181818;stroke-width:1;" x1="286.6777" x2="286.6777" y1="163.2363" y2="183.2363"/><polygon fill="#181818" points="282.6777,173.2363,286.6777,183.2363,290.6777,173.2363,286.6777,177.2363" style="stroke:#181818;stroke-width:1;stroke-linejoin:miter;stroke-miterlimit:10;"/><line style="stroke:#181818;stroke-width:1;" x1="123.5596" x2="123.5596" y1="638.9863" y2="658.9863"/><polygon fill="#181818" points="119.5596,648.9863,123.5596,658.9863,127.5596,648.9863,123.5596,652.9863" style="stroke:#181818;stroke-width:1;stroke-linejoin:miter;stroke-miterlimit:10;"/><line style="stroke:#181818;stroke-width:1;" x1="449.7959" x2="449.7959" y1="638.9863" y2="658.9863"/><polygon fill="#181818" points="445.7959,648.9863,449.7959,658.9863,453.7959,648.9863,449.7959,652.9863" style="stroke:#181818;stroke-width:1;stroke-linejoin:miter;stroke-miterlimit:10;"/><line style="stroke:#181818;stroke-width:1;" x1="449.7959" x2="449.7959" y1="692.9551" y2="712.9551"/><polygon fill="#181818" points="445.7959,702.9551,449.7959,712.9551,453.7959,702.9551,449.7959,706.9551" style="stroke:#181818;stroke-width:1;stroke-linejoin:miter;stroke-miterlimit:10;"/><line style="stroke:#181818;stroke-width:1;" x1="449.7959" x2="449.7959" y1="746.9238" y2="766.9238"/><polygon fill="#181818" points="445.7959,756.9238,449.7959,766.9238,453.7959,756.9238,449.7959,760.9238" style="stroke:#181818;stroke-width:1;stroke-linejoin:miter;stroke-miterlimit:10;"/><line style="stroke:#181818;stroke-width:1;" x1="929.1504" x2="929.1504" y1="271.1738" y2="291.1738"/><polygon fill="#181818" points="925.1504,281.1738,929.1504,291.1738,933.1504,281.1738,929.1504,285.1738" style="stroke:#181818;stroke-width:1;stroke-linejoin:miter;stroke-miterlimit:10;"/><line style="stroke:#181818;stroke-width:1;" x1="929.1504" x2="929.1504" y1="325.1426" y2="345.1426"/><polygon fill="#181818" points="925.1504,335.1426,929.1504,345.1426,933.1504,335.1426,929.1504,339.1426" style="stroke:#181818;stroke-width:1;stroke-linejoin:miter;stroke-miterlimit:10;"/><line style="stroke:#181818;stroke-width:1;" x1="766.0322" x2="766.0322" y1="477.0801" y2="497.0801"/><polygon fill="#181818" points="762.0322,487.0801,766.0322,497.0801,770.0322,487.0801,766.0322,491.0801" style="stroke:#181818;stroke-width:1;stroke-linejoin:miter;stroke-miterlimit:10;"/><line style="stroke:#181818;stroke-width:1;" x1="766.0322" x2="766.0322" y1="531.0488" y2="551.0488"/><polygon fill="#181818" points="762.0322,541.0488,766.0322,551.0488,770.0322,541.0488,766.0322,545.0488" style="stroke:#181818;stroke-width:1;stroke-linejoin:miter;stroke-miterlimit:10;"/><line style="stroke:#181818;stroke-width:1;" x1="1092.2686" x2="1092.2686" y1="477.0801" y2="497.0801"/><polygon fill="#181818" points="1088.2686,487.0801,1092.2686,497.0801,1096.2686,487.0801,1092.2686,491.0801" style="stroke:#181818;stroke-width:1;stroke-linejoin:miter;stroke-miterlimit:10;"/><line style="stroke:#181818;stroke-width:1;" x1="1092.2686" x2="1092.2686" y1="531.0488" y2="551.0488"/><polygon fill="#181818" points="1088.2686,541.0488,1092.2686,551.0488,1096.2686,541.0488,1092.2686,545.0488" style="stroke:#181818;stroke-width:1;stroke-linejoin:miter;stroke-miterlimit:10;"/><line style="stroke:#181818;stroke-width:1;" x1="842.3672" x2="766.0322" y1="411.1113" y2="411.1113"/><line style="stroke:#181818;stroke-width:1;" x1="766.0322" x2="766.0322" y1="411.1113" y2="443.1113"/><polygon fill="#181818" points="762.0322,433.1113,766.0322,443.1113,770.0322,433.1113,766.0322,437.1113" style="stroke:#181818;stroke-width:1;stroke-linejoin:miter;stroke-miterlimit:10;"/><line style="stroke:#181818;stroke-width:1;" x1="1015.9336" x2="1092.2686" y1="411.1113" y2="411.1113"/><line style="stroke:#181818;stroke-width:1;" x1="1092.2686" x2="1092.2686" y1="411.1113" y2="443.1113"/><polygon fill="#181818" points="1088.2686,433.1113,1092.2686,443.1113,1096.2686,433.1113,1092.2686,437.1113" style="stroke:#181818;stroke-width:1;stroke-linejoin:miter;stroke-miterlimit:10;"/><line style="stroke:#181818;stroke-width:1;" x1="929.1504" x2="929.1504" y1="379.1113" y2="399.1113"/><polygon fill="#181818" points="925.1504,389.1113,929.1504,399.1113,933.1504,389.1113,929.1504,393.1113" style="stroke:#181818;stroke-width:1;stroke-linejoin:miter;stroke-miterlimit:10;"/><line style="stroke:#181818;stroke-width:1;" x1="286.6777" x2="286.6777" y1="217.2051" y2="222.2051"/><line style="stroke:#181818;stroke-width:1;" x1="286.6777" x2="929.1504" y1="222.2051" y2="222.2051"/><line style="stroke:#181818;stroke-width:1;" x1="929.1504" x2="929.1504" y1="222.2051" y2="237.2051"/><polygon fill="#181818" points="925.1504,227.2051,929.1504,237.2051,933.1504,227.2051,929.1504,231.2051" style="stroke:#181818;stroke-width:1;stroke-linejoin:miter;stroke-miterlimit:10;"/><line style="stroke:#181818;stroke-width:1;" x1="766.0322" x2="766.0322" y1="585.0176" y2="590.0176"/><line style="stroke:#181818;stroke-width:1;" x1="766.0322" x2="123.5596" y1="590.0176" y2="590.0176"/><line style="stroke:#181818;stroke-width:1;" x1="123.5596" x2="123.5596" y1="590.0176" y2="605.0176"/><polygon fill="#181818" points="119.5596,595.0176,123.5596,605.0176,127.5596,595.0176,123.5596,599.0176" style="stroke:#181818;stroke-width:1;stroke-linejoin:miter;stroke-miterlimit:10;"/><line style="stroke:#181818;stroke-width:1;" x1="1092.2686" x2="1092.2686" y1="585.0176" y2="590.0176"/><line style="stroke:#181818;stroke-width:1;" x1="1092.2686" x2="449.7959" y1="590.0176" y2="590.0176"/><line style="stroke:#181818;stroke-width:1;" x1="449.7959" x2="449.7959" y1="590.0176" y2="605.0176"/><polygon fill="#181818" points="445.7959,595.0176,449.7959,605.0176,453.7959,595.0176,449.7959,599.0176" style="stroke:#181818;stroke-width:1;stroke-linejoin:miter;stroke-miterlimit:10;"/><text fill="#000000" font-family="'Segoe UI'" font-size="12" lengthAdjust="spacing" textLength="39.123" x="291.6982" y="27.4688">Warga</text><text fill="#000000" font-family="'Segoe UI'" font-size="12" lengthAdjust="spacing" textLength="80.0039" x="875.854" y="27.4688">Sistem (RAG)</text><?plantuml-src RLBBRjDG4DtxAqPUe4I8gh11IWKeQKGBILd4HXNBSJnsXlkoxYDHK3-UkIuf8M9d-PuvSnuJ5Di1FHfegSEausTdupSq16L5lIFu_gKimlz05VyYUFlkx37ii7K7jZrqg0CLnTCZ-XwVYX3HnsAsI0eXOWCQZsZHGbcZFI9iwlAccAqeibBoTo0Vy__yYIs2qAS8snr6GTMK8T6PncbGxDa8Fg2zaMqLXqW69flvtVIfc5LiXf5Edk6GbO0Yk1MUjUk5weuiUOm4Uzf6vu5CGssRvRVe-Ko6OEyv9dcuTO4jWJ2p5amyIY2s5_gLTGTDRP_varL1v707aqe9xuOqxT46XeyVuFhg_VMdASGTMPZyG7W3N_60ZL0iMSHBGdPQ0Cpcfc4DWujkv6-TIaP6FFL9er1jQeZa5RA48l2ARQJ00Nx-OKELn1iOqgWJmthzCE9gD0Fh764lgaoJJPr6NiC2iuCgIH0-mq_zoU23W76Ro-YSDrc1fs2oZWmCqGq5IUSmgRb59RQMiZIXXwKpoAEdYtwowXIIU9B85OP_cn_xkf3ytAH1xE0LA3cf11GKvZn6v2A9uuX9EE1HQWxpOG19q62KP2O7l38qlV2rqgnEvrJUfnm8WvnYocS9UyONfdBSiMJKlCjgv9PmaEcSnSksq-I8NVqzJpbvsuUSjeoTWvwJiortnMy0?></g></svg>